<mxfile modified="2020-11-25T15:19:13.191Z" host="app.diagrams.net" agent="5.0 (X11; Linux x86_64) AppleWebKit/537.36 (KHTML, like Gecko) Chrome/87.0.4280.66 Safari/537.36" etag="6AaskVUZqyAoqK7oExnc" version="13.10.1" type="github">
  <diagram id="WI9T0HZ2pTsCkuznbFz-" name="Page-1">
    <mxGraphModel dx="1595" dy="1166" grid="1" gridSize="10" guides="1" tooltips="1" connect="1" arrows="1" fold="1" page="1" pageScale="1" pageWidth="1169" pageHeight="827" math="0" shadow="0">
      <root>
        <mxCell id="0" />
        <mxCell id="1" parent="0" />
        <mxCell id="NeMDavBhTuvBt24PEzFU-9" style="edgeStyle=orthogonalEdgeStyle;rounded=0;orthogonalLoop=1;jettySize=auto;html=1;exitX=0.5;exitY=0;exitDx=0;exitDy=0;fontSize=16;" edge="1" parent="1" source="NeMDavBhTuvBt24PEzFU-1" target="NeMDavBhTuvBt24PEzFU-8">
          <mxGeometry relative="1" as="geometry" />
        </mxCell>
        <mxCell id="NeMDavBhTuvBt24PEzFU-20" value="Wired/SSH" style="edgeLabel;html=1;align=center;verticalAlign=middle;resizable=0;points=[];fontSize=16;fontFamily=Helvetica;fontColor=#000000;" vertex="1" connectable="0" parent="NeMDavBhTuvBt24PEzFU-9">
          <mxGeometry x="-0.1494" y="3" relative="1" as="geometry">
            <mxPoint as="offset" />
          </mxGeometry>
        </mxCell>
        <mxCell id="NeMDavBhTuvBt24PEzFU-1" value="" style="shape=image;html=1;verticalAlign=top;verticalLabelPosition=bottom;labelBackgroundColor=#ffffff;imageAspect=0;aspect=fixed;image=https://cdn0.iconfinder.com/data/icons/devices-42/512/Laptop-128.png;fontSize=16;spacing=0;" vertex="1" parent="1">
          <mxGeometry x="443.39" y="460" width="128" height="128" as="geometry" />
        </mxCell>
        <mxCell id="NeMDavBhTuvBt24PEzFU-5" value="&lt;span style=&quot;font-size: 16px&quot;&gt;PAD&lt;/span&gt;" style="shape=image;html=1;verticalAlign=top;verticalLabelPosition=bottom;labelBackgroundColor=#ffffff;imageAspect=0;aspect=fixed;image=https://cdn2.iconfinder.com/data/icons/pinpoint-interface-ii/48/device-tablet-128.png" vertex="1" parent="1">
          <mxGeometry x="280" y="10" width="90" height="90" as="geometry" />
        </mxCell>
        <mxCell id="NeMDavBhTuvBt24PEzFU-7" value="MONITOR" style="pointerEvents=1;shadow=0;dashed=0;html=1;strokeColor=none;fillColor=#434445;aspect=fixed;labelPosition=center;verticalLabelPosition=bottom;verticalAlign=top;align=center;outlineConnect=0;shape=mxgraph.vvd.monitor;fontSize=16;" vertex="1" parent="1">
          <mxGeometry x="459" y="10" width="96.78" height="90" as="geometry" />
        </mxCell>
        <mxCell id="NeMDavBhTuvBt24PEzFU-11" style="edgeStyle=orthogonalEdgeStyle;rounded=0;orthogonalLoop=1;jettySize=auto;html=1;exitX=0.94;exitY=0.5;exitDx=0;exitDy=0;exitPerimeter=0;fontSize=16;" edge="1" parent="1" source="NeMDavBhTuvBt24PEzFU-8" target="NeMDavBhTuvBt24PEzFU-7">
          <mxGeometry relative="1" as="geometry" />
        </mxCell>
        <mxCell id="NeMDavBhTuvBt24PEzFU-12" value="HDMI" style="edgeLabel;html=1;align=center;verticalAlign=middle;resizable=0;points=[];fontSize=16;" vertex="1" connectable="0" parent="NeMDavBhTuvBt24PEzFU-11">
          <mxGeometry x="0.2768" y="3" relative="1" as="geometry">
            <mxPoint x="2.99" y="21.4" as="offset" />
          </mxGeometry>
        </mxCell>
        <mxCell id="NeMDavBhTuvBt24PEzFU-13" style="edgeStyle=orthogonalEdgeStyle;rounded=0;orthogonalLoop=1;jettySize=auto;html=1;exitX=0.5;exitY=0;exitDx=0;exitDy=0;exitPerimeter=0;entryX=0.5;entryY=1;entryDx=0;entryDy=0;dashed=1;" edge="1" parent="1" source="NeMDavBhTuvBt24PEzFU-8" target="NeMDavBhTuvBt24PEzFU-5">
          <mxGeometry relative="1" as="geometry">
            <Array as="points">
              <mxPoint x="408" y="273" />
              <mxPoint x="325" y="273" />
            </Array>
          </mxGeometry>
        </mxCell>
        <mxCell id="NeMDavBhTuvBt24PEzFU-14" value="WIFI/gRPC" style="edgeLabel;html=1;align=center;verticalAlign=middle;resizable=0;points=[];fontSize=16;" vertex="1" connectable="0" parent="NeMDavBhTuvBt24PEzFU-13">
          <mxGeometry x="-0.2822" relative="1" as="geometry">
            <mxPoint y="-92.1" as="offset" />
          </mxGeometry>
        </mxCell>
        <mxCell id="NeMDavBhTuvBt24PEzFU-18" style="edgeStyle=orthogonalEdgeStyle;rounded=0;orthogonalLoop=1;jettySize=auto;html=1;exitX=0.5;exitY=1;exitDx=0;exitDy=0;exitPerimeter=0;fontFamily=Helvetica;fontSize=24;fontColor=#000000;" edge="1" parent="1" source="NeMDavBhTuvBt24PEzFU-8" target="NeMDavBhTuvBt24PEzFU-16">
          <mxGeometry relative="1" as="geometry" />
        </mxCell>
        <mxCell id="NeMDavBhTuvBt24PEzFU-19" value="Wired/gRPC" style="edgeLabel;html=1;align=center;verticalAlign=middle;resizable=0;points=[];fontSize=16;fontFamily=Helvetica;fontColor=#000000;" vertex="1" connectable="0" parent="NeMDavBhTuvBt24PEzFU-18">
          <mxGeometry x="-0.21" y="3" relative="1" as="geometry">
            <mxPoint as="offset" />
          </mxGeometry>
        </mxCell>
        <mxCell id="NeMDavBhTuvBt24PEzFU-8" value="" style="shape=mxgraph.cisco.computers_and_peripherals.ibm_tower;html=1;pointerEvents=1;dashed=0;strokeColor=#ffffff;strokeWidth=2;verticalLabelPosition=bottom;verticalAlign=top;align=center;outlineConnect=0;rotatable=1;rotation=-91;fillColor=#1A1A1A;" vertex="1" parent="1">
          <mxGeometry x="469.88" y="172" width="75.01" height="200" as="geometry" />
        </mxCell>
        <mxCell id="NeMDavBhTuvBt24PEzFU-15" value="OMC" style="text;html=1;align=center;verticalAlign=middle;resizable=0;points=[];autosize=1;fontSize=16;fontFamily=Helvetica;fontStyle=0;labelBackgroundColor=#ffffff;" vertex="1" parent="1">
          <mxGeometry x="483.39" y="320" width="50" height="20" as="geometry" />
        </mxCell>
        <mxCell id="NeMDavBhTuvBt24PEzFU-16" value="" style="shape=mxgraph.cisco.computers_and_peripherals.ibm_tower;html=1;pointerEvents=1;dashed=0;strokeColor=#ffffff;strokeWidth=2;verticalLabelPosition=bottom;verticalAlign=top;align=center;outlineConnect=0;rotatable=1;rotation=-91;fillColor=#1A1A1A;" vertex="1" parent="1">
          <mxGeometry x="811.61" y="217" width="46.78" height="100" as="geometry" />
        </mxCell>
        <mxCell id="NeMDavBhTuvBt24PEzFU-17" value="XAVIER" style="text;html=1;align=center;verticalAlign=middle;resizable=0;points=[];autosize=1;fontSize=16;fontFamily=Helvetica;fontStyle=0;labelBackgroundColor=#ffffff;" vertex="1" parent="1">
          <mxGeometry x="800" y="295" width="70" height="20" as="geometry" />
        </mxCell>
        <mxCell id="NeMDavBhTuvBt24PEzFU-21" value="NOTEBOOK" style="text;html=1;align=center;verticalAlign=middle;resizable=0;points=[];autosize=1;fontSize=16;fontFamily=Helvetica;fontStyle=0;labelBackgroundColor=#ffffff;" vertex="1" parent="1">
          <mxGeometry x="457.39" y="568" width="100" height="20" as="geometry" />
        </mxCell>
      </root>
    </mxGraphModel>
  </diagram>
</mxfile>
